# xmcd
#
# Track frame offsets: 
#        187
#        26772
#        49865
#        74142
#        101705
#        125847
#        151980
#        174522
#        196625
#        218285
#        240522
#        270287
#
# Disc length: 3939 seconds
#
# Revision: 12
# Processed by: cddbd v1.5.2PL0 Copyright (c) Steve Scherf et al.
# Submitted via: ExactAudioCopy v1.0b3
#
DISCID=a20f610c
DTITLE=UA - 11
DYEAR=1996
DGENRE=R&B
TTITLE0=リズム
TTITLE1=大きな木に甘えて
TTITLE2=落ちた星
TTITLE3=バラ色
TTITLE4=ゼリー
TTITLE5=ヒマワリ
TTITLE6=雲がちぎれる時
TTITLE7=情熱(king wadada dub)
TTITLE8=紅い花
TTITLE9=水色
TTITLE10=ランデブー
TTITLE11=情熱(secret track version)
EXTD=YEAR: 1996
EXTT0=
EXTT1=
EXTT2=
EXTT3=
EXTT4=
EXTT5=
EXTT6=
EXTT7=
EXTT8=
EXTT9=
EXTT10=
EXTT11=
PLAYORDER=
